<svg xmlns="http://www.w3.org/2000/svg" width="12" height="12" viewBox="0 0 12 12"><defs><style>.a{fill:#512698;}</style></defs><g transform="translate(-2.5 -2.5)"><path class="a" d="M38.873,2.5H35.1a.668.668,0,1,0,0,1.337h2.149L31,10.1a.667.667,0,1,0,.944.944L38.2,4.794V6.943a.668.668,0,0,0,1.337,0V3.168A.671.671,0,0,0,38.873,2.5Z" transform="translate(-25.042)"/><path class="a" d="M12.13,20.058a.642.642,0,0,0-.64.639v2.567A1.5,1.5,0,0,1,10,24.754H5.287a1.5,1.5,0,0,1-1.494-1.49v-4.7a1.5,1.5,0,0,1,1.494-1.49H7.861a.639.639,0,1,0,0-1.277H5.287A2.786,2.786,0,0,0,2.5,18.58v4.7a2.786,2.786,0,0,0,2.787,2.78H10a2.786,2.786,0,0,0,2.787-2.78V20.7A.662.662,0,0,0,12.13,20.058Z" transform="translate(0 -11.557)"/></g></svg>