<svg xmlns="http://www.w3.org/2000/svg" width="16.578" height="16.578" viewBox="0 0 16.578 16.578"><defs><style>.a{fill:#d6083b;}</style></defs><path class="a" d="M240.261,879.24a8.289,8.289,0,1,1-8.289-8.289A8.288,8.288,0,0,1,240.261,879.24Zm-8.066-5.548a4.328,4.328,0,0,0-3.9,2.13.4.4,0,0,0,.09.543l1.16.879a.4.4,0,0,0,.557-.071c.6-.757,1.007-1.2,1.915-1.2.683,0,1.528.44,1.528,1.1,0,.5-.413.758-1.087,1.136-.786.44-1.827.989-1.827,2.361v.134a.4.4,0,0,0,.4.4h1.871a.4.4,0,0,0,.4-.4v-.045c0-.951,2.78-.99,2.78-3.565C236.089,875.163,234.078,873.692,232.194,873.692Zm-.223,8.289a1.538,1.538,0,1,0,1.538,1.537A1.539,1.539,0,0,0,231.972,881.981Z" transform="translate(-223.683 -870.951)"/></svg>